<svg width="32" height="32" viewBox="0 0 32 32" fill="none" xmlns="http://www.w3.org/2000/svg">
  <rect width="32" height="32" rx="8" fill="url(#gradient)"/>
  <path d="M16 8C14.4 8 13 8.4 11.8 9.2C10.6 10 9.8 11 9.2 12.4C8.6 13.8 8.4 15.2 8.6 16.6C8.8 18 9.4 19.2 10.4 20.2L16 26L21.6 20.2C22.6 19.2 23.2 18 23.4 16.6C23.6 15.2 23.4 13.8 22.8 12.4C22.2 11 21.4 10 20.2 9.2C19 8.4 17.6 8 16 8Z" fill="white" opacity="0.9"/>
  <circle cx="16" cy="15" r="3" fill="url(#gradient2)"/>
  <defs>
    <linearGradient id="gradient" x1="0" y1="0" x2="32" y2="32" gradientUnits="userSpaceOnUse">
      <stop stop-color="#7C3AED"/>
      <stop offset="1" stop-color="#8B5CF6"/>
    </linearGradient>
    <linearGradient id="gradient2" x1="13" y1="12" x2="19" y2="18" gradientUnits="userSpaceOnUse">
      <stop stop-color="#7C3AED"/>
      <stop offset="1" stop-color="#A78BFA"/>
    </linearGradient>
  </defs>
</svg>