<svg viewBox="0 0 32 32" xmlns="http://www.w3.org/2000/svg">
  <!-- Base/Stand -->
  <rect x="4" y="26" width="24" height="4" rx="1" fill="#2d3748"/>
  
  <!-- Rolodex Wheel/Axle -->
  <rect x="14" y="10" width="4" height="18" fill="#4a5568"/>
  
  <!-- Cards fanned out -->
  <!-- Back cards (darker) -->
  <rect x="6" y="8" width="20" height="16" rx="1" transform="rotate(-15 16 16)" fill="#e2e8f0" opacity="0.6"/>
  <rect x="6" y="8" width="20" height="16" rx="1" transform="rotate(-10 16 16)" fill="#e2e8f0" opacity="0.7"/>
  <rect x="6" y="8" width="20" height="16" rx="1" transform="rotate(-5 16 16)" fill="#e2e8f0" opacity="0.8"/>
  
  <!-- Main front card -->
  <rect x="6" y="8" width="20" height="16" rx="1" fill="#f7fafc"/>
  
  <!-- Card details -->
  <rect x="8" y="10" width="16" height="1" fill="#a0aec0"/>
  <rect x="8" y="12" width="12" height="1" fill="#cbd5e0"/>
  <rect x="8" y="14" width="14" height="1" fill="#cbd5e0"/>
  <rect x="8" y="16" width="10" height="1" fill="#cbd5e0"/>
  
  <!-- Tab on card -->
  <rect x="22" y="8" width="4" height="6" rx="0.5" fill="#4299e1"/>
  
  <!-- Highlight/shine effect -->
  <rect x="6" y="8" width="20" height="8" rx="1" fill="url(#shine)" opacity="0.3"/>
  
  <defs>
    <linearGradient id="shine" x1="0%" y1="0%" x2="100%" y2="100%">
      <stop offset="0%" style="stop-color:white;stop-opacity:0.4" />
      <stop offset="100%" style="stop-color:white;stop-opacity:0" />
    </linearGradient>
  </defs>
</svg>